<svg width="32" height="32" viewBox="0 0 32 32" fill="none" xmlns="http://www.w3.org/2000/svg">
<path d="M28.9423 16.871V15.1175L31.2024 13.1921C31.619 12.8345 31.8924 12.3451 31.9743 11.8103C32.0561 11.2755 31.9412 10.7298 31.6497 10.2695L28.8717 5.68509C28.6653 5.33697 28.3685 5.04783 28.011 4.84667C27.6536 4.64551 27.2481 4.5394 26.8353 4.53898C26.5794 4.53708 26.325 4.57579 26.0819 4.65359L23.2215 5.5934C22.7276 5.27387 22.2125 4.98671 21.6794 4.73382L21.0791 1.84564C20.9714 1.31799 20.6766 0.843998 20.2462 0.506657C19.8158 0.169315 19.2773 -0.00988649 18.7248 0.000421113H13.2159C12.6634 -0.00988649 12.1249 0.169315 11.6945 0.506657C11.2641 0.843998 10.9692 1.31799 10.8616 1.84564L10.2613 4.73382C9.7244 4.98665 9.20533 5.2738 8.70744 5.5934L5.90586 4.60775C5.66019 4.54543 5.40579 4.52221 5.1525 4.53898C4.73965 4.5394 4.33417 4.64551 3.97674 4.84667C3.6193 5.04783 3.32249 5.33697 3.11606 5.68509L0.338033 10.2695C0.0632751 10.7291 -0.0388238 11.2674 0.0492228 11.7922C0.137269 12.317 0.409983 12.7956 0.820657 13.1462L3.04544 15.129V16.8825L0.820657 18.808C0.398383 19.1609 0.11821 19.6482 0.0298582 20.1832C-0.0584935 20.7182 0.0506902 21.2664 0.338033 21.7305L3.11606 26.3149C3.32249 26.663 3.6193 26.9522 3.97674 27.1533C4.33417 27.3545 4.73965 27.4606 5.1525 27.461C5.40835 27.4629 5.66281 27.4242 5.90586 27.3464L8.76629 26.4066C9.26015 26.7261 9.7753 27.0133 10.3083 27.2662L10.9087 30.1544C11.0163 30.682 11.3111 31.156 11.7415 31.4933C12.172 31.8307 12.7105 32.0099 13.2629 31.9996H18.819C19.3714 32.0099 19.91 31.8307 20.3404 31.4933C20.7708 31.156 21.0656 30.682 21.1733 30.1544L21.7736 27.2662C22.3104 27.0134 22.8295 26.7262 23.3274 26.4066L26.1761 27.3464C26.4191 27.4242 26.6736 27.4629 26.9294 27.461C27.3423 27.4606 27.7478 27.3545 28.1052 27.1533C28.4626 26.9522 28.7594 26.663 28.9659 26.3149L31.6497 21.7305C31.9245 21.2709 32.0266 20.7326 31.9385 20.2078C31.8505 19.683 31.5778 19.2044 31.1671 18.8538L28.9423 16.871ZM26.8353 25.1688L22.7977 23.8393C21.8525 24.6188 20.7723 25.2281 19.6077 25.6387L18.7719 29.7532H13.2159L12.3801 25.6846C11.2246 25.2623 10.1503 24.6541 9.20183 23.8852L5.1525 25.1688L2.37447 20.5844L5.57627 17.8338C5.35861 16.6474 5.35861 15.4328 5.57627 14.2465L2.37447 11.4156L5.1525 6.83119L9.19006 8.16067C10.1352 7.38119 11.2154 6.77188 12.3801 6.36129L13.2159 2.24678H18.7719L19.6077 6.31544C20.7631 6.73769 21.8375 7.34595 22.7859 8.11482L26.8353 6.83119L29.6133 11.4156L26.4115 14.1662C26.6291 15.3526 26.6291 16.5672 26.4115 17.7535L29.6133 20.5844L26.8353 25.1688Z" fill="white"/>
<path d="M15.9939 22.8768C14.597 22.8768 13.2315 22.4734 12.07 21.7178C10.9085 20.9622 10.0033 19.8882 9.46872 18.6317C8.93415 17.3752 8.79428 15.9925 9.0668 14.6586C9.33932 13.3247 10.012 12.0994 10.9997 11.1377C11.9875 10.1759 13.246 9.52101 14.616 9.25567C15.986 8.99033 17.4061 9.12651 18.6967 9.64699C19.9872 10.1675 21.0903 11.0489 21.8664 12.1797C22.6424 13.3106 23.0567 14.6401 23.0567 16.0001C23.0661 16.9058 22.8899 17.8041 22.5383 18.6426C22.1867 19.481 21.6668 20.2427 21.0091 20.8831C20.3513 21.5235 19.569 22.0297 18.7078 22.372C17.8467 22.7144 16.924 22.886 15.9939 22.8768ZM15.9939 11.4157C15.3716 11.4016 14.7528 11.5106 14.175 11.736C13.5972 11.9613 13.0723 12.2985 12.6322 12.7271C12.192 13.1556 11.8457 13.6666 11.6142 14.2292C11.3827 14.7918 11.2709 15.3943 11.2854 16.0001C11.2709 16.606 11.3827 17.2085 11.6142 17.7711C11.8457 18.3337 12.192 18.8447 12.6322 19.2732C13.0723 19.7018 13.5972 20.039 14.175 20.2643C14.7528 20.4897 15.3716 20.5987 15.9939 20.5846C16.6162 20.5987 17.2349 20.4897 17.8128 20.2643C18.3906 20.039 18.9154 19.7018 19.3556 19.2732C19.7957 18.8447 20.142 18.3337 20.3735 17.7711C20.605 17.2085 20.7169 16.606 20.7024 16.0001C20.7169 15.3943 20.605 14.7918 20.3735 14.2292C20.142 13.6666 19.7957 13.1556 19.3556 12.7271C18.9154 12.2985 18.3906 11.9613 17.8128 11.736C17.2349 11.5106 16.6162 11.4016 15.9939 11.4157Z" fill="white"/>
</svg>
