<?xml version="1.0" encoding="utf-8"?>
<!-- Generator: Adobe Illustrator 27.5.0, SVG Export Plug-In . SVG Version: 6.00 Build 0)  -->
<svg version="1.1" xmlns="http://www.w3.org/2000/svg" xmlns:xlink="http://www.w3.org/1999/xlink" x="0px" y="0px"
	 viewBox="0 0 500 500" style="enable-background:new 0 0 500 500;" xml:space="preserve">
<g id="Background_Complete">
	<g>
		<rect y="382.398" style="fill:#EBEBEB;" width="500" height="0.25"/>
		<rect x="52.459" y="391.922" style="fill:#EBEBEB;" width="33.122" height="0.25"/>
		<rect x="171.14" y="389.208" style="fill:#EBEBEB;" width="42.527" height="0.25"/>
		<rect x="93.474" y="395.431" style="fill:#EBEBEB;" width="19.192" height="0.25"/>
		<rect x="434.667" y="399.528" style="fill:#EBEBEB;" width="15.234" height="0.25"/>
		<rect x="391.471" y="399.528" style="fill:#EBEBEB;" width="34.292" height="0.25"/>
		<rect x="308" y="392.333" style="fill:#EBEBEB;" width="23.833" height="0.25"/>
		<path style="fill:#EBEBEB;" d="M237.014,337.8H43.915c-3.147,0-5.708-2.561-5.708-5.708V60.66c0-3.147,2.561-5.708,5.708-5.708
			h193.099c3.146,0,5.707,2.561,5.707,5.708v271.432C242.721,335.239,240.16,337.8,237.014,337.8z M43.915,55.203
			c-3.01,0-5.458,2.448-5.458,5.458v271.432c0,3.01,2.448,5.458,5.458,5.458h193.099c3.009,0,5.457-2.448,5.457-5.458V60.66
			c0-3.009-2.448-5.458-5.457-5.458H43.915z"/>
		<path style="fill:#EBEBEB;" d="M453.31,337.8H260.212c-3.147,0-5.707-2.561-5.707-5.708V60.66c0-3.147,2.561-5.708,5.707-5.708
			H453.31c3.148,0,5.708,2.561,5.708,5.708v271.432C459.019,335.239,456.458,337.8,453.31,337.8z M260.212,55.203
			c-3.009,0-5.457,2.448-5.457,5.458v271.432c0,3.01,2.448,5.458,5.457,5.458H453.31c3.01,0,5.458-2.448,5.458-5.458V60.66
			c0-3.009-2.448-5.458-5.458-5.458H260.212z"/>
	</g>
	<g>
		<g>
			
				<rect x="307.499" y="88.217" transform="matrix(-1 -1.224647e-16 1.224647e-16 -1 722.8664 284.5929)" style="fill:#F0F0F0;" width="107.868" height="108.16"/>
			<rect x="305.637" y="88.217" style="fill:#E0E0E0;" width="1.863" height="108.16"/>
			
				<rect x="317.022" y="95.048" transform="matrix(-1 -1.224647e-16 1.224647e-16 -1 722.8664 284.5929)" style="fill:#FAFAFA;" width="88.822" height="94.497"/>
			<path style="fill:#F0F0F0;" d="M352.03,169.003h28.129c6.096,0,10.176-4.942,9.112-11.038l-5.47-31.337
				c-1.064-6.096-6.869-11.038-12.965-11.038h-28.129c-6.096,0-10.176,4.942-9.112,11.038l5.47,31.337
				C340.129,164.061,345.934,169.003,352.03,169.003z"/>
		</g>
		<g>
			<g>
				<g>
					<rect x="80.966" y="229.222" style="fill:#F0F0F0;" width="23.997" height="148.053"/>
					<rect x="83.421" y="377.276" style="fill:#F0F0F0;" width="126.856" height="5.108"/>
					
						<rect x="104.963" y="229.222" transform="matrix(-1 -1.224647e-16 1.224647e-16 -1 317.3495 606.4981)" style="fill:#F5F5F5;" width="107.424" height="148.053"/>
					
						<rect x="109.283" y="306.316" transform="matrix(-1 -1.224647e-16 1.224647e-16 -1 317.3494 639.0682)" style="fill:#F0F0F0;" width="98.784" height="26.437"/>
					
						<rect x="109.283" y="340.917" transform="matrix(-1 -1.224647e-16 1.224647e-16 -1 317.3494 708.2706)" style="fill:#F0F0F0;" width="98.784" height="26.437"/>
					<path style="fill:#F5F5F5;" d="M196.375,308.319h-75.401c-0.648,0-1.178-0.53-1.178-1.178v-1.269
						c0-0.648,0.53-1.178,1.178-1.178h75.401c0.648,0,1.178,0.53,1.178,1.178v1.269
						C197.554,307.789,197.023,308.319,196.375,308.319z"/>
					<path style="fill:#F5F5F5;" d="M196.375,342.921h-75.401c-0.648,0-1.178-0.53-1.178-1.178v-1.269
						c0-0.648,0.53-1.178,1.178-1.178h75.401c0.648,0,1.178,0.53,1.178,1.178v1.269C197.554,342.39,197.023,342.921,196.375,342.921
						z"/>
					
						<rect x="109.283" y="237.387" transform="matrix(-1 -1.224647e-16 1.224647e-16 -1 317.3494 501.2103)" style="fill:#F0F0F0;" width="98.784" height="26.437"/>
					
						<rect x="109.283" y="271.715" transform="matrix(-1 -1.224647e-16 1.224647e-16 -1 317.3494 569.8659)" style="fill:#F0F0F0;" width="98.784" height="26.437"/>
					<path style="fill:#F5F5F5;" d="M196.375,239.391h-75.401c-0.648,0-1.178-0.53-1.178-1.178v-1.269
						c0-0.648,0.53-1.178,1.178-1.178h75.401c0.648,0,1.178,0.53,1.178,1.178v1.269C197.554,238.86,197.023,239.391,196.375,239.391
						z"/>
					<path style="fill:#F5F5F5;" d="M196.375,273.718h-75.401c-0.648,0-1.178-0.53-1.178-1.178v-1.269
						c0-0.648,0.53-1.178,1.178-1.178h75.401c0.648,0,1.178,0.53,1.178,1.178v1.269
						C197.554,273.188,197.023,273.718,196.375,273.718z"/>
				</g>
			</g>
		</g>
		<g>
			<g>
				<rect x="73.794" y="80.059" style="fill:#E6E6E6;" width="134.712" height="118.261"/>
				<path style="fill:#E6E6E6;" d="M222.942,75.459H65.073c-0.739,0-1.337,0.599-1.337,1.337l0,0c0,0.739,0.599,1.337,1.337,1.337
					h157.868c0.739,0,1.337-0.599,1.337-1.337l0,0C224.279,76.057,223.68,75.459,222.942,75.459z"/>
				<rect x="76.465" y="80.059" style="fill:#F0F0F0;" width="137.757" height="118.261"/>
				<polygon style="fill:#E6E6E6;" points="208.505,198.32 73.794,198.32 73.794,202.109 212.443,202.109 				"/>
				<polygon style="fill:#F0F0F0;" points="223.744,198.32 85.987,198.32 89.925,202.109 227.682,202.109 				"/>
				
					<rect x="94.215" y="78.314" transform="matrix(-1.836970e-16 1 -1 -1.836970e-16 284.5327 -6.1532)" style="fill:#FAFAFA;" width="102.256" height="121.752"/>
				<polygon style="fill:#FFFFFF;" points="112.106,190.318 159.075,88.062 181.247,88.062 134.278,190.318 				"/>
				<polygon style="fill:#FFFFFF;" points="139.041,190.318 186.01,88.062 194.654,88.062 147.685,190.318 				"/>
				
					<rect x="154.583" y="138.682" transform="matrix(-1.836970e-16 1 -1 -1.836970e-16 344.9005 -66.521)" style="fill:#E6E6E6;" width="102.256" height="1.016"/>
			</g>
			<g style="opacity:0.4;">
				<rect x="70.787" y="73.066" style="fill:#F0F0F0;" width="13.773" height="97.592"/>
				<rect x="79.195" y="73.066" style="fill:#E6E6E6;" width="10.73" height="97.592"/>
				<rect x="84.56" y="73.066" style="fill:#F0F0F0;" width="13.773" height="97.592"/>
				<rect x="92.968" y="73.066" style="fill:#E6E6E6;" width="10.73" height="97.592"/>
				<rect x="98.333" y="73.066" style="fill:#F0F0F0;" width="13.773" height="97.592"/>
			</g>
			<g style="opacity:0.4;">
				<rect x="193.156" y="73.066" style="fill:#F0F0F0;" width="7.937" height="97.592"/>
				<rect x="198.001" y="73.066" style="fill:#E6E6E6;" width="6.183" height="97.592"/>
				<rect x="201.093" y="73.066" style="fill:#F0F0F0;" width="7.937" height="97.592"/>
				<rect x="205.938" y="73.066" style="fill:#E6E6E6;" width="6.183" height="97.592"/>
				<rect x="209.03" y="73.066" style="fill:#F0F0F0;" width="7.937" height="97.592"/>
			</g>
		</g>
		<g>
			<g>
				<g>
					<path style="fill:#E0E0E0;" d="M356.85,269.214c-0.333,4.044,2.676,7.592,6.72,7.924c4.044,0.333,7.592-2.676,7.924-6.72
						c0.333-4.044-2.676-7.592-6.72-7.924C360.731,262.161,357.183,265.17,356.85,269.214z"/>
					<path style="fill:#E0E0E0;" d="M368.85,273.057c-0.333,4.044,2.676,7.592,6.72,7.924c4.044,0.333,7.592-2.676,7.924-6.72
						c0.333-4.044-2.676-7.592-6.72-7.924C372.731,266.004,369.183,269.013,368.85,273.057z"/>
					<path style="fill:#E0E0E0;" d="M381.715,274.547c-0.333,4.044,2.676,7.592,6.72,7.924c4.044,0.333,7.592-2.676,7.924-6.72
						c0.333-4.044-2.676-7.592-6.72-7.924C385.596,267.495,382.048,270.503,381.715,274.547z"/>
					<path style="fill:#E0E0E0;" d="M343.201,273.057c-0.333,4.044,2.676,7.592,6.72,7.924c4.044,0.333,7.592-2.676,7.924-6.72
						c0.332-4.044-2.676-7.592-6.72-7.924C347.081,266.004,343.533,269.013,343.201,273.057z"/>
					<path style="fill:#E0E0E0;" d="M392.312,273.057c-0.333,4.044,2.676,7.592,6.72,7.924c4.044,0.333,7.592-2.676,7.924-6.72
						c0.333-4.044-2.676-7.592-6.72-7.924C396.192,266.004,392.644,269.013,392.312,273.057z"/>
					<path style="fill:#E0E0E0;" d="M333.334,268.668c-0.332,4.044,2.676,7.592,6.72,7.924c4.044,0.332,7.592-2.676,7.924-6.72
						c0.333-4.044-2.676-7.592-6.72-7.924C337.215,261.616,333.667,264.624,333.334,268.668z"/>
					<path style="fill:#E0E0E0;" d="M322.921,271.389c-0.333,4.044,2.676,7.592,6.72,7.924c4.044,0.333,7.592-2.676,7.924-6.72
						c0.332-4.044-2.676-7.592-6.72-7.924C326.801,264.337,323.253,267.345,322.921,271.389z"/>
				</g>
				<g>
					<g>
						<g>
							<path style="fill:#F0F0F0;" d="M314.525,273.367c0,0,1.261,30.078,49.584,30.078s49.584-30.078,49.584-30.078H314.525z"/>
						</g>
					</g>
				</g>
			</g>
			<g>
				<rect x="432.068" y="303.444" style="fill:#E6E6E6;" width="9.186" height="78.953"/>
				<rect x="438.302" y="303.444" style="fill:#F0F0F0;" width="5.411" height="78.953"/>
				<rect x="392.975" y="303.444" style="fill:#E6E6E6;" width="9.186" height="78.953"/>
				<rect x="398.472" y="303.444" style="fill:#F0F0F0;" width="5.411" height="78.953"/>
				
					<rect x="314.932" y="303.444" transform="matrix(-1 -1.224647e-16 1.224647e-16 -1 760.3206 616.4615)" style="fill:#F0F0F0;" width="130.457" height="9.573"/>
				<rect x="265.87" y="303.444" style="fill:#E6E6E6;" width="9.186" height="78.953"/>
				<rect x="271.367" y="303.444" style="fill:#F0F0F0;" width="5.411" height="78.953"/>
				
					<rect x="264.228" y="303.444" transform="matrix(-1 -1.224647e-16 1.224647e-16 -1 575.2289 616.4615)" style="fill:#E6E6E6;" width="46.773" height="9.573"/>
				<rect x="304.963" y="303.444" style="fill:#E6E6E6;" width="9.186" height="78.953"/>
				<rect x="311.197" y="303.444" style="fill:#F0F0F0;" width="5.411" height="78.953"/>
			</g>
		</g>
	</g>
</g>
<g id="Background_Simple" style="display:none;">
	<g style="display:inline;">
		<path style="fill:#407BFF;" d="M198.361,278.435c-40.77-9.463-75.382-5.025-104.459-44.947
			c-27.498-37.754-19.783-71.095,8.401-99.73c73.625-74.805,146.872,20.323,238.723,35.561
			c80.044,13.279,103.324,145.355,34.398,191.345c-22.217,14.824-65.858,28.479-91.842,8.495
			C247.169,341.154,254.399,291.442,198.361,278.435z"/>
		<path style="opacity:0.9;fill:#FFFFFF;" d="M198.361,278.435c-40.77-9.463-75.382-5.025-104.459-44.947
			c-27.498-37.754-19.783-71.095,8.401-99.73c73.625-74.805,146.872,20.323,238.723,35.561
			c80.044,13.279,103.324,145.355,34.398,191.345c-22.217,14.824-65.858,28.479-91.842,8.495
			C247.169,341.154,254.399,291.442,198.361,278.435z"/>
	</g>
</g>
<g id="Shadow_1_">
	<ellipse id="_x3C_Path_x3E__219_" style="fill:#F5F5F5;" cx="250" cy="416.238" rx="193.889" ry="11.323"/>
</g>
<g id="Trash">
	<g>
		<path style="fill:#407BFF;" d="M355.477,406.309c0,4.129-2.974,7.655-7.047,8.331c-7.793,1.294-21.296,3.073-36.648,3.073
			c-15.352,0-28.854-1.779-36.648-3.073c-4.073-0.676-7.047-4.202-7.047-8.331v-80.968h87.39V406.309z"/>
		<path style="opacity:0.3;" d="M268.085,326.774v11.363c5.259,1.949,22.527,3.381,43.692,3.381c21.189,0,38.469-1.432,43.704-3.381
			v-11.363H268.085z"/>
		<path style="fill:#407BFF;" d="M357.123,335.443c0,2.565-19.841,4.644-45.341,4.644c-25.501,0-45.341-2.079-45.341-4.644
			l-0.832-10.102h92.346L357.123,335.443z"/>
		<g>
			<ellipse style="fill:#407BFF;" cx="311.782" cy="325.342" rx="46.173" ry="4.644"/>
			<ellipse style="opacity:0.3;" cx="311.782" cy="325.342" rx="46.173" ry="4.644"/>
		</g>
		<path style="opacity:0.2;" d="M279.797,400.608L279.797,400.608c-1.865,0-3.391-1.526-3.391-3.391v-46.434
			c0-1.865,1.526-3.391,3.391-3.391l0,0c1.865,0,3.391,1.526,3.391,3.391v46.434C283.189,399.082,281.663,400.608,279.797,400.608z"
			/>
		<path style="opacity:0.2;" d="M343.767,400.608L343.767,400.608c-1.865,0-3.391-1.526-3.391-3.391v-46.434
			c0-1.865,1.526-3.391,3.391-3.391l0,0c1.865,0,3.391,1.526,3.391,3.391v46.434C347.158,399.082,345.632,400.608,343.767,400.608z"
			/>
		<path style="opacity:0.2;" d="M322.444,400.608L322.444,400.608c-1.865,0-3.391-1.526-3.391-3.391v-46.434
			c0-1.865,1.526-3.391,3.391-3.391l0,0c1.865,0,3.391,1.526,3.391,3.391v46.434C325.835,399.082,324.309,400.608,322.444,400.608z"
			/>
		<path style="opacity:0.2;" d="M301.121,400.608L301.121,400.608c-1.865,0-3.391-1.526-3.391-3.391v-46.434
			c0-1.865,1.526-3.391,3.391-3.391l0,0c1.865,0,3.391,1.526,3.391,3.391v46.434C304.512,399.082,302.986,400.608,301.121,400.608z"
			/>
	</g>
</g>
<g id="Character_1_">
	<g>
		<path style="fill:#263238;" d="M192.877,139.156c0,2.559-2.074,4.633-4.633,4.633c-2.559,0-4.633-2.074-4.633-4.633
			c0-2.559,2.074-4.633,4.633-4.633C190.803,134.523,192.877,136.598,192.877,139.156z"/>
		<path style="fill:#263238;" d="M184.513,139.833c-0.089,0-0.174-0.047-0.22-0.13c-1.288-2.364-0.412-5.335,1.952-6.624
			c1.145-0.624,2.465-0.765,3.716-0.396c1.251,0.369,2.284,1.202,2.907,2.348c0.066,0.121,0.021,0.273-0.1,0.339
			c-0.122,0.065-0.273,0.02-0.339-0.1c-0.56-1.028-1.487-1.777-2.61-2.107c-1.123-0.332-2.307-0.205-3.335,0.355
			c-2.122,1.156-2.908,3.823-1.752,5.945c0.066,0.121,0.021,0.273-0.1,0.339C184.594,139.823,184.553,139.833,184.513,139.833z"/>
		<path style="fill:#263238;" d="M180.017,160.36c-1.042,0-2.052-0.333-2.903-0.966c-1.046-0.778-1.727-1.918-1.916-3.208
			c-0.189-1.29,0.135-2.577,0.914-3.624c0.779-1.046,1.918-1.727,3.208-1.917c0.141-0.016,0.264,0.075,0.284,0.211
			c0.02,0.136-0.074,0.264-0.211,0.284c-1.158,0.17-2.181,0.781-2.88,1.72c-0.699,0.939-0.99,2.094-0.82,3.253
			c0.17,1.158,0.781,2.181,1.72,2.88c0.939,0.699,2.093,0.988,3.252,0.819c0.138-0.019,0.264,0.075,0.284,0.211
			c0.02,0.136-0.074,0.263-0.211,0.284C180.496,160.343,180.256,160.36,180.017,160.36z"/>
		<path style="fill:#263238;" d="M205.213,167.919c-0.933,0-1.847-0.269-2.648-0.788c-0.116-0.075-0.149-0.23-0.074-0.346
			c0.075-0.116,0.23-0.148,0.346-0.074c0.982,0.638,2.154,0.854,3.298,0.61c1.145-0.244,2.127-0.919,2.764-1.901
			c1.315-2.027,0.736-4.747-1.291-6.062c-0.116-0.075-0.149-0.23-0.074-0.346c0.075-0.116,0.23-0.148,0.346-0.074
			c2.258,1.466,2.904,4.495,1.438,6.754c-0.71,1.094-1.803,1.846-3.079,2.118C205.898,167.882,205.554,167.919,205.213,167.919z"/>
		<circle style="fill:#263238;" cx="185.642" cy="147.071" r="6.559"/>
		
			<ellipse transform="matrix(0.7071 -0.7071 0.7071 0.7071 -55.8625 176.93)" style="fill:#263238;" cx="185.642" cy="155.897" rx="8.701" ry="8.701"/>
		<circle style="fill:#263238;" cx="186.563" cy="166.961" r="9.622"/>
		
			<ellipse transform="matrix(0.2298 -0.9732 0.9732 0.2298 -12.0321 320.0519)" style="fill:#263238;" cx="196.186" cy="167.628" rx="9.622" ry="9.622"/>
		<path style="fill:#FFB573;" d="M228.091,187.464c0.003,0.773,0.039,1.761,0.065,2.666c0.03,0.924,0.078,1.856,0.136,2.789
			c0.132,1.865,0.26,3.74,0.454,5.611c0.36,3.745,0.871,7.487,1.517,11.206c0.167,0.929,0.314,1.863,0.505,2.787l0.439,2.265
			c0.112,0.367,0.038,0.29-0.135,0.277c-0.169,0.006,0.04,0.185,0.587,0.184c1.095,0.007,2.793-0.543,4.377-1.24
			c0.806-0.355,1.622-0.753,2.443-1.168c0.806-0.415,1.646-0.902,2.398-1.32l2.925,3.365c-0.733,0.847-1.444,1.549-2.221,2.275
			c-0.765,0.722-1.576,1.406-2.446,2.05c-0.866,0.655-1.799,1.251-2.829,1.807c-1.033,0.555-2.174,1.036-3.578,1.342
			c-0.704,0.143-1.478,0.248-2.352,0.197c-0.869-0.054-1.84-0.245-2.779-0.695c-0.938-0.437-1.797-1.11-2.427-1.846
			c-0.642-0.735-1.084-1.513-1.404-2.247c-0.315-0.701-0.557-1.541-0.655-1.931l-0.396-1.46c-0.271-0.972-0.511-1.952-0.745-2.933
			c-0.925-3.928-1.668-7.901-2.165-11.916c-0.247-2.007-0.448-4.024-0.567-6.054c-0.061-1.015-0.11-2.033-0.142-3.06
			c-0.039-1.046-0.033-2.011-0.003-3.189L228.091,187.464z"/>
		<g>
			<path style="fill:#407BFF;" d="M223.238,176.682c8.531,6.531,8.188,18.837,8.188,18.837l-15.258,3.647
				c0,0-4.682-12.373-2.782-16.904C215.368,177.536,218.437,173.007,223.238,176.682z"/>
			<path style="opacity:0.7;fill:#FFFFFF;" d="M223.238,176.682c8.531,6.531,8.188,18.837,8.188,18.837l-15.258,3.647
				c0,0-4.682-12.373-2.782-16.904C215.368,177.536,218.437,173.007,223.238,176.682z"/>
		</g>
		<path style="fill:#FFB573;" d="M240.265,212.656l2.525-4.238l6.321,6.758c0,0-4.534,2.9-9.232,0.831L240.265,212.656z"/>
		<polygon style="fill:#FFB573;" points="245.901,206.389 254.013,211.166 249.111,215.176 242.79,208.417 		"/>
		<polygon style="fill:#FFB573;" points="175.488,408.858 184.213,409.697 189.625,389.273 180.9,388.435 		"/>
		<polygon style="fill:#FFB573;" points="130.788,391.686 138.618,395.79 147.929,377.331 140.099,373.227 		"/>
		<path style="fill:#263238;" d="M140.708,392.197l-7.003-7.11c-0.255-0.259-0.641-0.292-0.93-0.079l-6.423,4.731
			c-0.666,0.491-0.724,1.536-0.126,2.123c2.484,2.437,3.807,3.488,6.886,6.615c1.895,1.924,5.803,6.457,8.42,9.114
			c2.559,2.598,5.383,0.211,4.531-1.13c-3.818-6.01-4.459-9.769-4.701-12.822C141.317,393.087,141.081,392.575,140.708,392.197z"/>
		<path style="fill:#263238;" d="M185.573,407.046h-10.538c-0.384,0-0.73,0.266-0.832,0.641l-2.291,8.338
			c-0.238,0.865,0.399,1.66,1.286,1.668c3.714,0.034,5.474,0.017,10.109,0.017c2.851,0,10.227,0,14.164,0
			c3.851,0,4.656-3.893,3.063-4.246c-7.144-1.581-11.262-3.761-13.467-5.841C186.668,407.247,186.134,407.046,185.573,407.046z"/>
		<polygon style="opacity:0.2;" points="189.622,389.279 186.834,399.806 177.883,399.806 180.893,388.44 		"/>
		<polygon style="opacity:0.2;" points="140.094,373.231 147.928,377.337 143.125,386.85 135.292,382.744 		"/>
		<g>
			<path style="fill:#407BFF;" d="M220.663,175.417c0,0,3.857,1.697-9.08,52.896c-14.263-1.234-29.004-2.508-35.944-3.109
				c1.868-14.577,2.666-23.596-1.73-54.223c0,0,7.673-0.987,15.437-0.691c6.074,0.232,11.046,0.467,16.322,1.412
				C212.622,172.949,220.663,175.417,220.663,175.417z"/>
			<path style="opacity:0.7;fill:#FFFFFF;" d="M220.663,175.417c0,0,3.857,1.697-9.08,52.896
				c-14.263-1.234-29.004-2.508-35.944-3.109c1.868-14.577,2.666-23.596-1.73-54.223c0,0,7.673-0.987,15.437-0.691
				c6.074,0.232,11.046,0.467,16.322,1.412C212.622,172.949,220.663,175.417,220.663,175.417z"/>
		</g>
		<path style="fill:#FFFFFF;" d="M189.346,170.04c0,0-2.039,0.036-4.448,0.036c-1.446,2.234,4.672,8.744,12.453,15.14
			c1.875-5.829,4.834-5.803,4.834-5.803L189.346,170.04z"/>
		<path style="fill:#FFFFFF;" d="M205.663,171.574c0,0,0.909,0.129,3.085,0.625c1.446,2.234,2.257,7.809-2.01,12.672
			c-1.665-6.001-4.552-5.458-4.552-5.458L205.663,171.574z"/>
		<path style="fill:#FFB573;" d="M192.553,152.053c0.575,5.341,0.771,15.052-3.207,18.238c0,0,4.248,4.336,12.839,9.122
			c6.25-4.318,3.482-7.71,3.482-7.71c-5.735-1.905-5.208-6.237-3.835-10.229L192.553,152.053z"/>
		<path style="opacity:0.2;" d="M196.336,155.897l5.492,5.572c-0.328,0.945-0.603,1.907-0.754,2.854
			c-2.209-0.517-5.407-2.813-5.442-5.176C195.615,157.969,196.098,156.425,196.336,155.897z"/>
		<path style="fill:#263238;" d="M213.171,134.625c3.674,3.264,4.758,11.208,1.258,16.597
			C212.697,142.633,213.171,134.625,213.171,134.625z"/>
		<path style="fill:#FFB573;" d="M191.429,140.842c-0.636,8.793-1.094,12.502,2.71,17.57c5.721,7.624,16.661,6.482,19.911-1.944
			c2.926-7.584,3.475-20.69-4.595-25.308C201.504,126.61,192.066,132.048,191.429,140.842z"/>
		<path style="fill:#263238;" d="M190.262,147.917c6.5-0.25,10.102-8.75,8.468-12.333c7.366,3.833,18.534,6.861,17.291,1.917
			c-1.676-6.667-9.743-11.556-19.676-7.983C190.596,132,185.679,137.5,190.262,147.917z"/>
		<path style="fill:#FFB573;" d="M188.284,147.906c0.272,1.807,1.353,3.321,2.575,4.194c1.839,1.313,3.525-0.146,3.656-2.283
			c0.118-1.923-0.697-4.924-2.851-5.389C189.541,143.968,187.973,145.839,188.284,147.906z"/>
		<path style="fill:#263238;" d="M211.582,228.314c0,0,8.13,53.049,3.596,87.131c-3.425,25.75-25.561,81.31-25.561,81.31
			l-14.37-0.394c0,0,14.844-53.851,17.913-75.028c5.249-36.226-7.899-95.295-7.899-95.295L211.582,228.314z"/>
		<path style="opacity:0.2;" d="M197.559,239.176l-7.666,12.09c1.95,12.537,3.891,28.217,4.386,43.306
			C205.06,275.273,199.956,249.394,197.559,239.176z"/>
		<polygon style="fill:#407BFF;" points="191.859,397.549 173.802,397.065 174.897,391.246 193.561,391.356 		"/>
		<path style="fill:#263238;" d="M203.724,227.741c0,0-5.985,58.743-19.713,90.694c-11.088,25.807-37.527,67.07-37.527,67.07
			l-10.562-6.176c0,0,17.037-45.893,25.387-63.09c20.474-42.169,1.429-75.989,14.33-91.035L203.724,227.741z"/>
		<polygon style="fill:#407BFF;" points="147.63,386.407 134.163,379.023 136.349,373.263 150.703,381.355 		"/>
		<path style="fill:#407BFF;" d="M175.283,223.049l-1.899,3.077c-0.147,0.239,0.126,0.519,0.542,0.555l37.695,3.26
			c0.324,0.028,0.606-0.107,0.644-0.309l0.602-3.189c0.042-0.221-0.223-0.434-0.577-0.465l-36.398-3.148
			C175.624,222.807,175.378,222.895,175.283,223.049z"/>
		<path style="fill:#263238;" d="M179.819,227.542l-0.975-0.084c-0.194-0.017-0.333-0.13-0.309-0.251l0.819-4.141
			c0.024-0.121,0.202-0.207,0.397-0.19l0.975,0.084c0.194,0.017,0.333,0.13,0.309,0.251l-0.819,4.141
			C180.192,227.473,180.013,227.559,179.819,227.542z"/>
		<path style="fill:#263238;" d="M208.851,230.053l-0.975-0.084c-0.194-0.017-0.333-0.13-0.309-0.251l0.819-4.141
			c0.024-0.121,0.202-0.207,0.396-0.19l0.975,0.084c0.194,0.017,0.333,0.13,0.309,0.251l-0.819,4.141
			C209.223,229.984,209.045,230.07,208.851,230.053z"/>
		<path style="fill:#263238;" d="M194.335,228.797l-0.975-0.084c-0.194-0.017-0.333-0.13-0.309-0.251l0.819-4.141
			c0.024-0.121,0.202-0.207,0.396-0.19l0.975,0.084c0.194,0.017,0.333,0.13,0.309,0.251l-0.819,4.141
			C194.708,228.729,194.529,228.814,194.335,228.797z"/>
		<path style="fill:#263238;" d="M205.195,145.212c-0.096,0.71,0.203,1.336,0.668,1.399c0.464,0.062,0.918-0.463,1.013-1.173
			c0.095-0.71-0.204-1.336-0.668-1.399C205.744,143.977,205.291,144.502,205.195,145.212z"/>
		<path style="fill:#263238;" d="M213.222,146.291c-0.096,0.71,0.203,1.336,0.668,1.399c0.464,0.062,0.918-0.463,1.013-1.173
			c0.096-0.71-0.204-1.336-0.668-1.399C213.771,145.056,213.318,145.581,213.222,146.291z"/>
		<path style="fill:#263238;" d="M214.025,145.13l1.772-0.262C215.797,144.867,214.743,146.082,214.025,145.13z"/>
		<path style="fill:#ED893E;" d="M210.072,147.071c0,0,0.794,3.219,1.922,4.872c-1.055,0.749-2.595,0.135-2.595,0.135
			L210.072,147.071z"/>
		<path style="fill:#263238;" d="M205.242,154.205c-2.357-0.801-3.259-2.642-3.302-2.732c-0.041-0.087-0.004-0.191,0.083-0.233
			c0.086-0.042,0.191-0.005,0.233,0.082c0.012,0.024,1.194,2.417,4.318,2.836c0.1,0.012,0.163,0.101,0.15,0.196
			c-0.013,0.096-0.101,0.163-0.196,0.15C206.059,154.44,205.63,154.337,205.242,154.205z"/>
		<path style="fill:#263238;" d="M201.553,141.095c-0.058-0.02-0.112-0.055-0.155-0.106c-0.124-0.148-0.105-0.368,0.043-0.493
			c1.752-1.474,3.582-0.943,3.659-0.92c0.191,0.073,0.288,0.25,0.233,0.434c-0.055,0.185-0.249,0.29-0.434,0.236
			c-0.063-0.019-1.554-0.437-3.008,0.785C201.794,141.113,201.666,141.133,201.553,141.095z"/>
		<path style="fill:#263238;" d="M216.592,143.233c-0.054-0.018-0.105-0.051-0.146-0.097c-1.283-1.423-2.854-1.194-2.87-1.191
			c-0.192,0.03-0.37-0.101-0.4-0.291c-0.03-0.191,0.1-0.37,0.291-0.4c0.08-0.013,1.966-0.288,3.498,1.413
			c0.129,0.144,0.118,0.365-0.025,0.494C216.842,143.249,216.708,143.272,216.592,143.233z"/>
		<g>
			<g>
				<g>
					<g>
						<g>
							<path style="fill:#407BFF;" d="M224.503,218.676c2.723-8.482,11.807-13.15,20.289-10.426
								c8.482,2.723,13.15,11.807,10.426,20.289l-6.232,19.408l-30.715-9.862L224.503,218.676z"/>
							<path style="opacity:0.3;" d="M224.503,218.676c2.723-8.482,11.807-13.15,20.289-10.426
								c8.482,2.723,13.15,11.807,10.426,20.289l-6.232,19.408l-30.715-9.862L224.503,218.676z"/>
							<g>
								<path style="fill:#407BFF;" d="M194.189,208.94l-5.618,17.497c-0.34,1.058,0.243,2.19,1.3,2.53l28.402,9.12l6.233-19.412
									c1.141-3.555,3.395-6.435,6.261-8.385c3.966-2.711,9.098-3.622,14.025-2.04l-30.316-9.735
									c-4.927-1.582-10.059-0.671-14.025,2.04C197.583,202.505,195.33,205.385,194.189,208.94z"/>
							</g>
						</g>
					</g>
				</g>
				<path style="fill:#263238;" d="M209.431,222.208l7.825-24.371c0.119-0.37-0.123-0.759-0.507-0.816l-8.02-1.187l-1.015,3.16
					l5.821,1.869l-6.596,20.543L209.431,222.208z"/>
				<path style="fill:#263238;" d="M205.275,220.874c-0.507,1.578,0.362,3.268,1.94,3.775c1.578,0.507,3.269-0.362,3.775-1.94
					c0.507-1.578-0.362-3.268-1.94-3.775C207.472,218.427,205.781,219.296,205.275,220.874z"/>
				<g>
					<path style="fill:#407BFF;" d="M219.754,240.972l39.398,12.65c0.603,0.194,1.249-0.138,1.443-0.742l0,0
						c0.194-0.603-0.138-1.249-0.741-1.443l-41.582-13.352l0,0C217.884,239.292,218.548,240.585,219.754,240.972z"/>
					<path style="opacity:0.2;" d="M219.754,240.972l16.1,5.169c0.603,0.194,1.249-0.138,1.443-0.742l0,0
						c0.194-0.603-0.138-1.249-0.742-1.443l-18.284-5.871l0,0C217.884,239.292,218.548,240.585,219.754,240.972z"/>
				</g>
			</g>
		</g>
		<path style="fill:#FFB573;" d="M178.144,185.102l-0.557,0.605l-0.621,0.714c-0.42,0.48-0.835,0.978-1.24,1.486
			c-0.814,1.014-1.591,2.071-2.33,3.153c-1.51,2.143-2.877,4.394-4.046,6.733c-1.169,2.338-2.209,4.736-3.006,7.211
			c-0.4,1.235-0.777,2.481-1.065,3.745c-0.096,0.37-0.114,0.518-0.156,0.696c-0.019,0.162-0.04,0.314-0.042,0.434
			c-0.005,0.245,0.018,0.366,0.042,0.47c0.013,0.177,0.335,0.605,1.156,1.017c0.799,0.407,1.912,0.717,3.093,0.943
			c2.392,0.456,5.083,0.526,7.783,0.51c2.712-0.034,5.471-0.239,8.231-0.532c2.759-0.25,5.563-0.648,8.275-1.054l1.09,4.323
			c-5.599,1.801-11.22,3.097-17.153,3.813c-2.969,0.354-5.998,0.51-9.248,0.197c-1.63-0.176-3.321-0.486-5.135-1.212
			c-0.904-0.373-1.846-0.866-2.763-1.586c-0.911-0.713-1.797-1.689-2.403-2.864c-1.265-2.346-1.114-5.112-0.768-6.737
			c0.243-1.53,0.586-3.039,0.964-4.538c0.812-2.981,1.839-5.902,3.152-8.681c1.297-2.787,2.816-5.456,4.511-8.011
			c0.866-1.266,1.778-2.499,2.746-3.702c0.483-0.602,0.979-1.196,1.498-1.785l0.805-0.873c0.293-0.306,0.527-0.551,0.92-0.933
			L178.144,185.102z"/>
		<path style="fill:#FFB573;" d="M191.475,212.131l7.01-3.714l0.314,7.527c0,0-4.951,2.064-7.857-0.215L191.475,212.131z"/>
		<polygon style="fill:#FFB573;" points="204.25,207.846 203.198,214.778 198.799,215.944 198.486,208.417 		"/>
		<g>
			<path style="fill:#407BFF;" d="M173.909,170.982c-4.406,0.779-10.581,13.418-10.581,13.418l11.108,10.046
				c0,0,8.835-9.636,8.363-15.378C182.399,174.194,179.521,169.99,173.909,170.982z"/>
			<path style="opacity:0.7;fill:#FFFFFF;" d="M173.909,170.982c-4.406,0.779-10.581,13.418-10.581,13.418l11.108,10.046
				c0,0,8.835-9.636,8.363-15.378C182.399,174.194,179.521,169.99,173.909,170.982z"/>
		</g>
		<path style="fill:#407BFF;" d="M144.15,396.061c-0.11,0.031-0.226,0.043-0.346,0.036c-1.111-0.06-2.299-1.754-2.909-2.759
			c-0.036-0.06-0.033-0.135,0.007-0.192c0.041-0.057,0.111-0.084,0.179-0.07c0.354,0.076,3.47,0.772,3.856,1.819
			c0.059,0.16,0.085,0.407-0.123,0.679C144.621,395.83,144.398,395.993,144.15,396.061z M141.419,393.516
			c0.889,1.372,1.773,2.199,2.404,2.233c0.273,0.014,0.505-0.112,0.714-0.386c0.121-0.158,0.099-0.273,0.072-0.346
			C144.373,394.375,142.497,393.785,141.419,393.516z"/>
		<path style="fill:#407BFF;" d="M143.834,393.301c-0.963,0.268-2.229,0.289-2.837,0.116c-0.06-0.017-0.106-0.065-0.122-0.125
			c-0.015-0.06,0.003-0.124,0.047-0.168c0.077-0.076,1.897-1.854,3.167-1.764c0.331,0.023,0.601,0.165,0.8,0.424
			c0.31,0.402,0.182,0.721,0.077,0.875C144.771,392.947,144.345,393.159,143.834,393.301z M141.416,393.145
			c1.028,0.136,2.877-0.118,3.262-0.683c0.064-0.094,0.114-0.233-0.065-0.465c-0.137-0.178-0.316-0.272-0.546-0.288
			C143.2,391.646,141.943,392.674,141.416,393.145z"/>
		<path style="fill:#407BFF;" d="M189.303,408.389c-1.012,0-2.113-0.196-2.877-0.365c-0.073-0.016-0.128-0.078-0.136-0.152
			c-0.008-0.074,0.032-0.146,0.1-0.178c0.433-0.204,4.256-1.97,5.219-1.319c0.123,0.083,0.266,0.244,0.249,0.541
			c-0.024,0.411-0.199,0.743-0.521,0.986C190.86,408.265,190.11,408.389,189.303,408.389z M187.027,407.79
			c1.135,0.212,3.235,0.489,4.099-0.165c0.24-0.182,0.364-0.419,0.382-0.727c0.008-0.142-0.047-0.199-0.096-0.232
			C190.875,406.301,188.614,407.091,187.027,407.79z"/>
		<path style="fill:#407BFF;" d="M186.464,408.029c-0.041,0-0.081-0.014-0.113-0.042c-0.05-0.042-0.072-0.109-0.058-0.173
			c0.036-0.161,0.904-3.931,2.979-3.69c0.52,0.062,0.662,0.32,0.689,0.525c0.13,0.96-2.281,2.895-3.432,3.366
			C186.508,408.024,186.486,408.029,186.464,408.029z M189.085,404.462c-1.325,0-2.098,2.194-2.354,3.073
			c1.245-0.652,2.968-2.225,2.885-2.839c-0.006-0.045-0.025-0.182-0.385-0.225C189.181,404.465,189.132,404.462,189.085,404.462z"/>
		<path style="fill:#263238;" d="M205.998,144.051l1.772-0.262C207.77,143.789,206.716,145.003,205.998,144.051z"/>
	</g>
</g>
<g id="E-mails">
	<g>
		<g>
			<path style="fill:#407BFF;" d="M267.529,227.71l-38.72,8.04c-1.39,0.28-2.75-0.61-3.04-2l-1.75-8.44l-0.65-3.1l1.14-3.54
				c0.16-0.51,0.35-1.01,0.57-1.49c0.02-0.07,0.06-0.15,0.1-0.22c0.65-1.48,1.52-2.82,2.55-3.99l2.02-0.42l33.2-6.89
				c1.05-0.22,2.09,0.25,2.66,1.09c0.18,0.27,0.31,0.57,0.38,0.9l3.53,17.02C269.809,226.05,268.909,227.42,267.529,227.71z"/>
			<path style="opacity:0.3;" d="M265.609,206.75l-18.68,19.03l-4-1.62l-15.56-6.31l-2.19-0.89c0.65-1.48,1.52-2.82,2.55-3.99
				l2.02-0.42l33.2-6.89C263.999,205.44,265.039,205.91,265.609,206.75z"/>
			<g>
				<path style="fill:#407BFF;" d="M265.609,206.75l-22.68,17.41l-1.48,1.14l-14.25-7.07l-2.12-1.05c0.02-0.07,0.06-0.15,0.1-0.22
					c0.65-1.48,1.52-2.82,2.55-3.99l2.02-0.42l33.2-6.89C263.999,205.44,265.039,205.91,265.609,206.75z"/>
				<path style="opacity:0.2;fill:#FFFFFF;" d="M265.609,206.75l-22.68,17.41l-1.48,1.14l-14.25-7.07l-2.12-1.05
					c0.02-0.07,0.06-0.15,0.1-0.22c0.65-1.48,1.52-2.82,2.55-3.99l2.02-0.42l33.2-6.89
					C263.999,205.44,265.039,205.91,265.609,206.75z"/>
			</g>
		</g>
		<g>
			<path style="fill:#407BFF;" d="M314.803,262.783l-11.842,12.716c-0.964,1.035-2.599,1.093-3.633,0.129l-28.939-26.95
				c-1.035-0.964-1.093-2.599-0.129-3.633l11.842-12.716c0.231-0.248,0.501-0.441,0.792-0.574c0.922-0.43,2.054-0.288,2.841,0.445
				l28.939,26.95c0.785,0.732,1.009,1.853,0.647,2.801C315.207,262.252,315.035,262.534,314.803,262.783z"/>
			<path style="opacity:0.3;" d="M315.321,261.951l-26.324-4.243l-6.103-25.953c0.922-0.43,2.054-0.288,2.841,0.445l28.939,26.95
				C315.46,259.881,315.683,261.002,315.321,261.951z"/>
			<g>
				<path style="fill:#407BFF;" d="M315.321,261.951l-25.627-7.644l-6.8-22.551c0.922-0.43,2.054-0.288,2.841,0.445l28.939,26.95
					C315.46,259.881,315.683,261.002,315.321,261.951z"/>
				<path style="opacity:0.2;fill:#FFFFFF;" d="M315.321,261.951l-25.627-7.644l-6.8-22.551c0.922-0.43,2.054-0.288,2.841,0.445
					l28.939,26.95C315.46,259.881,315.683,261.002,315.321,261.951z"/>
			</g>
		</g>
		<g>
			<path style="fill:#407BFF;" d="M325.088,283.735l13.019,15.178c1.053,1.228,0.849,3.063-0.431,4.062l-28.236,22.03
				c-0.798,0.622-2.115,0.356-2.939-0.584l-10.168-11.602c-0.199-0.227-0.357-0.479-0.471-0.739
				c-0.367-0.828-0.304-1.756,0.233-2.317l24.978-26.115c0.859-0.898,2.114-1.1,3.135-0.599
				C324.533,283.208,324.832,283.436,325.088,283.735z"/>
			<path style="opacity:0.3;" d="M324.207,283.05l-6.23,27.615l-22.116,1.415c-0.367-0.828-0.304-1.756,0.233-2.317l24.978-26.115
				C321.932,282.75,323.186,282.549,324.207,283.05z"/>
			<g>
				<path style="fill:#407BFF;" d="M324.207,283.05l-10.405,29.313l-17.94-0.282c-0.367-0.828-0.304-1.756,0.233-2.317
					l24.978-26.115C321.932,282.75,323.186,282.549,324.207,283.05z"/>
				<path style="opacity:0.2;fill:#FFFFFF;" d="M324.207,283.05l-10.405,29.313l-17.94-0.282c-0.367-0.828-0.304-1.756,0.233-2.317
					l24.978-26.115C321.932,282.75,323.186,282.549,324.207,283.05z"/>
			</g>
		</g>
	</g>
</g>
</svg>
